<?xml version="1.0" standalone="no"?>
<!DOCTYPE svg PUBLIC "-//W3C//DTD SVG 20010904//EN"
 "http://www.w3.org/TR/2001/REC-SVG-20010904/DTD/svg10.dtd">
<svg version="1.0" xmlns="http://www.w3.org/2000/svg"
 width="1024.000000pt" height="1024.000000pt" viewBox="0 0 1024.000000 1024.000000"
 preserveAspectRatio="xMidYMid meet">
<metadata>
Created by potrace 1.11, written by Peter Selinger 2001-2013
</metadata>
<g transform="translate(0.000000,1024.000000) scale(0.100000,-0.100000)"
fill="#000000" stroke="none">
<path d="M4795 9924 c-1070 -58 -2070 -464 -2875 -1169 -164 -144 -424 -416
-564 -591 -133 -166 -313 -428 -411 -598 -271 -473 -463 -1007 -555 -1542 -52
-302 -64 -449 -64 -794 -1 -320 7 -440 45 -700 171 -1177 787 -2246 1725
-2996 1135 -908 2642 -1238 4059 -889 1325 326 2448 1214 3068 2427 274 536
433 1083 499 1718 19 187 16 716 -5 909 -104 927 -445 1758 -1013 2465 -140
175 -400 447 -564 591 -748 655 -1648 1047 -2640 1150 -151 15 -564 26 -705
19z m-85 -4319 l0 -2405 -200 0 -200 0 -2 368 -3 367 -44 -85 c-236 -458 -686
-711 -1220 -687 -691 31 -1206 514 -1361 1276 -33 166 -44 280 -44 481 0 281
30 486 105 714 134 408 394 731 723 895 206 103 387 144 631 145 243 0 414
-39 615 -140 238 -119 409 -290 536 -534 l39 -75 3 1043 2 1042 210 0 210 0 0
-2405z m2425 1045 c459 -79 788 -337 914 -720 57 -175 54 -107 58 -1472 l4
-1258 -201 0 -200 0 -1 333 c0 217 -4 327 -10 317 -5 -8 -33 -55 -62 -104 -97
-167 -290 -342 -482 -439 -370 -185 -867 -195 -1231 -23 -270 128 -438 319
-520 593 -36 118 -45 347 -20 473 57 278 215 474 494 614 151 76 394 141 612
165 90 10 1121 81 1176 81 l26 0 -4 233 c-6 262 -18 329 -85 466 -57 116 -178
234 -303 294 -257 125 -636 134 -910 23 -230 -92 -399 -289 -460 -533 l-11
-43 -201 0 -200 0 7 58 c48 407 341 741 776 886 258 86 547 105 834 56z"/>
<path d="M3068 6299 c-603 -51 -1008 -604 -1008 -1379 0 -780 403 -1327 1014
-1379 224 -19 439 26 616 130 91 53 124 78 213 167 178 175 296 413 357 717
28 139 39 446 21 592 -44 350 -162 628 -356 832 -228 240 -518 349 -857 320z"/>
<path d="M7095 4835 c-253 -18 -512 -40 -576 -49 -387 -53 -629 -214 -705
-471 -24 -81 -24 -239 0 -320 71 -235 270 -393 568 -450 105 -20 329 -20 444
0 240 42 460 157 612 320 107 114 171 226 218 381 26 85 28 100 32 357 l4 267
-69 -1 c-37 -1 -275 -16 -528 -34z"/>
</g>
</svg>
